       <svg id="clip-svg" width="400" height="300" viewBox="0, 0, 400,300">
            <path id="clip-svg" d="M46.250 30.298 C 13.265 35.005,3.093 48.509,13.707 73.500 C 23.853 97.388,45.699 108.596,73.055 103.950 C 91.093 100.887,92.172 103.502,83.600 129.500 C 71.738 165.473,71.179 180.493,80.669 208.250 C 90.264 236.315,108.408 255.747,126.038 256.843 C 148.147 258.217,173.415 243.420,211.994 206.509 C 244.371 175.531,260.661 165.304,276.359 166.099 C 287.440 166.660,294.500 176.447,294.500 191.247 C 294.500 202.653,298.083 216.143,302.427 221.091 C 311.483 231.404,328.177 218.685,348.812 185.750 C 366.270 157.886,372.725 130.660,365.966 113.397 C 359.904 97.912,333.537 100.727,301.750 120.252 C 280.323 133.414,274.572 134.338,265.759 126.037 C 257.532 118.288,250.674 116.476,236.250 118.238 C 218.341 120.426,215.550 119.221,213.435 108.392 C 208.489 83.065,198.764 71.039,173.000 58.393 C 138.220 41.322,71.944 26.631,46.250 30.298 "></path>
          </svg>